<svg xmlns="http://www.w3.org/2000/svg" width="474" height="61" viewBox="0 0 474 61" fill="none"><path d="M2.50444 25.4751L2.45989 25.4527C1.70245 25.0903 1.43066 24.6786 1.43066 23.8061V16.8933C1.43066 16.2312 1.88513 15.2244 2.39305 14.786L7.01787 10.8173C7.54362 10.3474 8.66195 9.94476 9.37929 9.94476H15.3007C16.6284 9.94476 17.7155 8.86646 17.7155 7.52864V4.43243C17.7155 3.88656 18.1878 3.28701 18.6824 3.16173L28.7563 0.727707C29.4558 0.562158 30.7212 0.638221 31.4296 0.897731L38.3312 3.4794C38.3802 3.51967 38.4381 3.53757 38.4871 3.55099C39.0084 3.86867 39.5074 4.2803 39.8104 4.62035L43.5397 8.81724C44.4397 9.76579 45.4199 10.0253 46.6674 9.39442L47.6343 8.93357C48.0397 8.74118 48.5343 8.91567 48.9576 9.42574L57.6458 19.2916C57.9933 19.6943 58.0156 20.4191 57.7126 20.8442L48.4274 33.3409C48.0264 33.8957 47.0773 34.3476 46.4135 34.3476H44.1991L46.5828 31.0187C47.1976 30.1507 47.661 28.6608 47.661 27.6048V19.9359C47.661 18.8352 47.0773 17.3721 46.2932 16.5891L40.2248 10.4638C38.946 9.16623 38.554 8.60695 36.0544 8.60695H28.6137C27.4419 8.60695 26.0518 9.38995 25.4459 10.3609L24.978 11.1215H21.0705C19.4666 11.0678 18.5398 11.5197 17.7556 12.7457V12.7904L14.3739 18.701L14.3294 18.7502C14.267 18.9381 14.2135 19.0947 14.1868 19.2513H14.1511L12.9972 30.0746C12.9392 30.5847 12.8858 31.0635 12.8724 31.5109" fill="#F1F1F2"></path><path d="M40.6126 18.683C39.4542 17.3899 37.9081 15.7613 37.966 15.8239C37.115 14.9648 36.264 14.4413 35.168 14.4413H30.855C29.9595 14.4413 29.4516 14.7545 28.9704 15.4615C28.9481 15.4839 26.8184 19.0141 26.8005 19.0633C26.1946 20.164 26.2614 21.3362 27.7897 22.0656C28.6407 22.4369 30.757 23.3765 31.8486 23.7792C33.4125 24.4056 34.4774 24.5846 35.3551 23.3407L36.518 21.7434C37.467 20.4951 37.0081 19.891 36.3665 19.2646C35.7427 18.6248 35.2972 18.164 35.2972 18.164C35.1101 17.9716 35.0299 17.9626 34.5086 17.9626H33.9427C33.6353 17.9626 33.5061 18.1774 33.8714 18.5309C33.8714 18.5309 34.7046 19.457 35.0299 19.8374C35.4264 20.3072 35.4041 20.5219 35.0299 21.0275L34.0541 22.3295C33.6308 22.9201 33.3858 22.9604 32.4947 22.5846L28.5426 20.9067C28.0614 20.6338 28.008 20.3027 28.3377 19.645C28.3822 19.5778 30.2134 16.5398 30.2446 16.4816C30.4273 16.2042 30.5565 16.0834 30.9887 16.0834H35.2927C35.9744 16.0834 36.4868 16.3519 37.0437 17.0051C37.0437 17.0051 39.2982 19.5018 39.472 19.7031C40.0779 20.2848 40.225 20.7054 40.225 23.2154V26.7815C39.3428 26.5622 38.3849 26.2848 38.318 26.2624C37.3556 25.9269 35.8586 25.8687 34.8516 26.173L30.3516 27.5645L21.6455 23.3989L21.9173 21.5152C22.0153 20.7098 22.4609 19.4436 22.9109 18.7456L27.4243 11.5554C27.7941 10.9648 28.7476 10.4324 29.4471 10.4324H36.9279C37.6096 10.4324 38.1086 10.6203 38.4428 10.9917L44.5067 17.0857C45.0637 17.6449 45.5048 18.7367 45.5048 19.5018V27.1663C45.5048 27.39 45.4691 27.6718 45.3978 27.9895L45.3399 28.1998L41.7666 27.2289V23.5734C41.7666 21.2512 41.8156 20.0208 40.6215 18.6919" fill="#F1F1F2"></path><path d="M21.1017 17.6763C20.567 18.4951 20.0635 19.9448 19.921 20.9157L19.7338 22.4549L19.5066 22.3341L16.8066 21.0276C16.459 20.7994 16.2764 20.5085 16.2764 20.1953L16.3833 19.7658L19.7338 13.9089C20.1838 13.2065 20.6249 12.9112 21.8725 12.9336H24.0646" fill="#F1F1F2"></path><path d="M16.3481 22.1195L16.709 22.3387L28.6587 28.0882L19.9482 30.7638C18.8922 31.1039 17.863 32.2001 17.6358 33.2784L16.4417 38.6073L15.3056 34.5536C15.0293 33.3276 14.9758 32.2001 15.1719 30.7146L16.0541 22.2671L16.112 21.9763" fill="#F1F1F2"></path><path d="M19.7829 34.0209C19.9211 33.4079 20.5938 32.6965 21.1641 32.4997L36.0545 27.9001C36.7718 27.6987 37.9971 27.7256 38.6654 27.9806L38.7278 27.9896L44.56 29.5914L44.4932 29.6674L41.1426 34.3565H31.5143C30.5296 34.3565 29.0058 34.7547 28.1103 35.2827L18.2324 40.9337" fill="#F1F1F2"></path><path d="M29.3624 60.1911C29.0772 60.5804 28.3777 60.7638 27.9099 60.549C27.9099 60.549 11.3309 52.0479 8.22543 50.4326C7.64621 50.021 7.01799 49.3543 6.75511 48.7951L1.06988 35.9538C0.980773 35.7346 0.922852 35.5332 0.922852 35.3587C0.922852 35.0232 1.13226 34.7502 1.46197 34.4997C1.57336 34.4236 7.00462 31.7301 8.66652 30.8755L12.9483 33.3811L12.9572 33.3319L12.9795 33.3408C13.024 33.7167 13.1042 34.0657 13.1844 34.4236C13.1844 34.4639 15.0914 41.1172 15.4211 42.3521L15.3899 42.5624L13.0418 43.9002C12.2042 44.4058 11.7007 45.2425 11.723 46.1642C11.7542 46.7548 12.0171 47.8823 13.6166 48.6653C13.6166 48.6653 13.7547 48.7279 13.9998 48.8577C14.1245 48.9517 14.2805 49.0411 14.4453 49.1172C14.4453 49.1172 26.6623 55.3812 31.0154 57.6228" fill="#F1F1F2"></path><path d="M61.7803 31.7302L56.2955 33.502C55.2975 33.8152 53.9965 34.7459 53.3772 35.5915L46.7652 44.5222C46.3286 45.1307 45.2993 45.8645 44.5954 46.1464L35.1452 49.6095C34.5036 49.8421 33.3808 49.7571 32.7794 49.4305C32.7794 49.4305 24.0867 44.7817 23.6946 44.5804C23.1599 44.2672 22.799 44.3387 22.799 44.7951C22.799 45.2515 22.799 45.4931 23.6946 45.9942C24.5768 46.4954 32.9219 51.265 32.9219 51.265C33.8843 51.775 35.4616 51.8824 36.4997 51.5021L45.9899 48.03C46.939 47.6811 48.2266 46.7235 48.8415 45.8824L55.1015 37.4439L56.5272 42.9786C56.7099 43.6363 56.5094 44.7414 56.1307 45.3097L50.7573 52.8354C49.8039 54.1151 49.3895 54.303 47.6608 54.6565C47.5939 54.6654 32.6769 56.4104 32.2269 56.4641C31.8526 56.2986 17.5638 48.9562 14.7791 47.5379C14.3425 47.2426 14.1152 46.9115 14.1152 46.5535V46.5312C14.1152 46.209 14.2979 45.8779 14.6499 45.6855L29.7095 37.0591C30.3734 36.6787 31.6477 36.3477 32.4006 36.3477H47.2776C48.387 36.3477 49.8083 35.6362 50.4855 34.7056C50.4855 34.7056 53.9965 30.0299 56.6965 26.3923L61.8827 31.3588C62.003 31.4751 62.0387 31.6049 62.0387 31.6049C62.0119 31.6049 61.9585 31.6541 61.7892 31.7257" fill="#F1F1F2"></path><path d="M76.0468 39.1977L77.2631 37.0948C77.5349 36.6205 78.1097 36.6205 78.4126 36.8576C78.5819 36.9605 81.3176 38.9605 83.5142 38.9605C85.2697 38.9605 86.5885 37.8062 86.5885 36.3475C86.5885 34.616 85.136 33.4303 82.2978 32.2759C79.1211 30.9873 75.9443 28.9515 75.9443 24.9426C75.9443 21.9224 78.1765 18.428 83.5498 18.428C86.9984 18.428 89.6316 20.1953 90.3088 20.7009C90.6474 20.9023 90.7499 21.4795 90.5093 21.8195L89.2261 23.7524C88.9544 24.1596 88.4509 24.4325 88.041 24.1596C87.7692 23.9895 85.2028 22.2938 83.3449 22.2938C81.4869 22.2938 80.3686 23.5824 80.3686 24.6696C80.3686 26.267 81.6206 27.3497 84.3563 28.4728C87.6355 29.7972 91.4227 31.7659 91.4227 36.1417C91.4227 39.6362 88.4152 42.8621 83.6478 42.8621C79.3884 42.8621 76.8888 40.8576 76.2116 40.2133C75.9086 39.9091 75.7393 39.7391 76.0423 39.1932L76.0468 39.1977Z" fill="#F1F1F2"></path><path d="M108.795 18.4238C115.554 18.4238 120.963 23.8869 120.963 30.6745C120.963 37.462 115.554 42.858 108.795 42.858C102.036 42.858 96.6631 37.462 96.6631 30.6745C96.6631 23.8869 102.036 18.4238 108.795 18.4238ZM108.795 38.4508C113.055 38.4508 116.57 34.9564 116.57 30.6789C116.57 26.4015 113.055 22.84 108.795 22.84C104.536 22.84 101.056 26.406 101.056 30.6789C101.056 34.9519 104.536 38.4508 108.795 38.4508Z" fill="#F1F1F2"></path><path d="M138.469 18.4238C141.882 18.4238 144.35 19.5111 146.649 21.5827C146.952 21.8556 146.952 22.2628 146.685 22.5312L144.622 24.6699C144.386 24.9429 144.047 24.9429 143.775 24.6699C142.354 23.4127 140.465 22.6655 138.571 22.6655C134.245 22.6655 131.032 26.2986 131.032 30.576C131.032 34.8535 134.276 38.415 138.602 38.415C140.63 38.415 142.354 37.6365 143.775 36.4821C144.047 36.245 144.417 36.2763 144.622 36.4821L146.716 38.6521C146.988 38.8893 146.921 39.3322 146.68 39.5694C144.381 41.811 141.476 42.8624 138.469 42.8624C131.71 42.8624 126.27 37.4664 126.27 30.6789C126.27 23.8914 131.71 18.4283 138.469 18.4283V18.4238Z" fill="#F1F1F2"></path><path d="M154.554 19.408C154.554 19.0679 154.857 18.7637 155.195 18.7637H158.341C158.68 18.7637 158.982 19.0679 158.982 19.408V41.8779C158.982 42.2179 158.68 42.5222 158.341 42.5222H155.195C154.857 42.5222 154.554 42.2179 154.554 41.8779V19.408Z" fill="#F1F1F2"></path><path d="M165.505 41.6406L176.015 18.7993C176.118 18.5935 176.287 18.428 176.59 18.428H176.929C177.267 18.428 177.401 18.598 177.504 18.7993L187.912 41.6406C188.117 42.0836 187.845 42.5221 187.337 42.5221H184.396C183.888 42.5221 183.652 42.3163 183.416 41.842L181.759 38.1775H171.654L169.996 41.842C169.862 42.182 169.555 42.5221 169.016 42.5221H166.075C165.567 42.5221 165.3 42.0791 165.5 41.6406H165.505ZM180.106 34.4102L176.724 26.9426H176.621L173.311 34.4102H180.106Z" fill="#F1F1F2"></path><path d="M194.604 19.408C194.604 19.0679 194.875 18.7637 195.245 18.7637H198.355C198.694 18.7637 198.997 19.0679 198.997 19.408V38.4506H207.614C207.983 38.4506 208.255 38.7548 208.255 39.0949V41.8779C208.255 42.2179 207.983 42.5222 207.614 42.5222H195.245C194.875 42.5222 194.604 42.2179 194.604 41.8779V19.408Z" fill="#F1F1F2"></path><path d="M215.286 19.408C215.286 19.0679 215.558 18.7637 215.897 18.7637H223.908C230.43 18.7637 235.773 24.0926 235.773 30.6116C235.773 37.1307 230.43 42.5267 223.908 42.5267H215.897C215.558 42.5267 215.286 42.2224 215.286 41.8824V19.4124V19.408ZM223.498 38.3835C227.891 38.3835 231.103 35.0591 231.103 30.6116C231.103 26.1642 227.891 22.8711 223.498 22.8711H219.644V38.3835H223.498Z" fill="#F1F1F2"></path><path d="M241.814 19.408C241.814 19.0679 242.086 18.7637 242.456 18.7637H256.21C256.58 18.7637 256.852 19.0679 256.852 19.408V22.191C256.852 22.531 256.58 22.8353 256.21 22.8353H246.208V28.4013H254.557C254.896 28.4013 255.199 28.7056 255.199 29.0456V31.8644C255.199 32.2358 254.896 32.5087 254.557 32.5087H246.208V38.4461H256.21C256.58 38.4461 256.852 38.7504 256.852 39.0904V41.8734C256.852 42.2135 256.58 42.5177 256.21 42.5177H242.456C242.086 42.5177 241.814 42.2135 241.814 41.8734V19.4035V19.408Z" fill="#F1F1F2"></path><path d="M267.772 18.9339C267.804 18.661 268.008 18.4238 268.383 18.4238H268.922C269.194 18.4238 269.394 18.5581 269.497 18.7639L276.933 34.7863H277.035L284.472 18.7639C284.574 18.5581 284.743 18.4238 285.046 18.4238H285.585C285.955 18.4238 286.16 18.661 286.196 18.9339L290.184 41.7439C290.286 42.2181 290.014 42.5224 289.573 42.5224H286.499C286.196 42.5224 285.924 42.2495 285.857 42.0123L283.866 29.1487H283.763L277.846 42.4866C277.779 42.6924 277.574 42.858 277.271 42.858H276.661C276.358 42.858 276.189 42.6879 276.086 42.4866L270.103 29.1487H270L268.04 42.0123C268.004 42.2495 267.737 42.5224 267.429 42.5224H264.386C263.945 42.5224 263.678 42.2181 263.745 41.7439L267.768 18.9339H267.772Z" fill="#F1F1F2"></path><path d="M307.854 18.4238C314.613 18.4238 320.022 23.8869 320.022 30.6745C320.022 37.462 314.613 42.858 307.854 42.858C301.095 42.858 295.722 37.462 295.722 30.6745C295.722 23.8869 301.095 18.4238 307.854 18.4238ZM307.854 38.4508C312.113 38.4508 315.629 34.9564 315.629 30.6789C315.629 26.4015 312.113 22.84 307.854 22.84C303.595 22.84 300.115 26.406 300.115 30.6789C300.115 34.9519 303.595 38.4508 307.854 38.4508Z" fill="#F1F1F2"></path><path d="M327.052 19.578C327.052 19.135 327.391 18.7637 327.863 18.7637H330.839C331.281 18.7637 331.65 19.135 331.65 19.578V28.7414L340.169 19.1037C340.303 18.9337 340.508 18.7637 340.811 18.7637H344.193C344.834 18.7637 345.173 19.4751 344.732 19.9852L335.91 29.9628L345.373 41.332C345.712 41.775 345.44 42.5177 344.763 42.5177H341.078C340.74 42.5177 340.535 42.3835 340.468 42.2806L331.646 31.3499V41.7034C331.646 42.1464 331.276 42.5177 330.835 42.5177H327.859C327.386 42.5177 327.048 42.1464 327.048 41.7034V19.5735L327.052 19.578Z" fill="#F1F1F2"></path><path d="M352.533 19.408C352.533 19.0679 352.805 18.7637 353.175 18.7637H362.843C366.898 18.7637 370.213 22.021 370.213 26.0613C370.213 29.1843 368.15 31.7302 365.209 32.9159L369.838 41.5379C370.075 41.9808 369.838 42.5222 369.264 42.5222H365.713C365.41 42.5222 365.24 42.3522 365.174 42.2179L360.678 33.2246H356.926V41.8779C356.926 42.2179 356.623 42.5222 356.285 42.5222H353.175C352.805 42.5222 352.533 42.2179 352.533 41.8779V19.408ZM362.469 29.5915C364.26 29.5915 365.815 28.0299 365.815 26.1284C365.815 24.3297 364.26 22.8353 362.469 22.8353H356.962V29.5915H362.469Z" fill="#F1F1F2"></path><path d="M375.413 41.6406L385.924 18.7993C386.026 18.5935 386.195 18.428 386.498 18.428H386.837C387.176 18.428 387.309 18.598 387.412 18.7993L397.82 41.6406C398.025 42.0836 397.753 42.5221 397.245 42.5221H394.304C393.797 42.5221 393.56 42.3163 393.324 41.842L391.667 38.1775H381.562L379.904 41.842C379.771 42.182 379.463 42.5221 378.924 42.5221H375.983C375.475 42.5221 375.208 42.0791 375.409 41.6406H375.413ZM390.014 34.4102L386.632 26.9426H386.53L383.219 34.4102H390.014Z" fill="#F1F1F2"></path><path d="M405.527 22.8353H400.354C399.985 22.8353 399.713 22.531 399.713 22.191V19.408C399.713 19.0679 399.985 18.7637 400.354 18.7637H415.125C415.494 18.7637 415.766 19.0679 415.766 19.408V22.191C415.766 22.531 415.494 22.8353 415.125 22.8353H409.952V41.8779C409.952 42.2179 409.649 42.5222 409.31 42.5222H406.164C405.826 42.5222 405.523 42.2179 405.523 41.8779V22.8353H405.527Z" fill="#F1F1F2"></path><path d="M423.812 19.408C423.812 19.0679 424.115 18.7637 424.454 18.7637H427.6C427.938 18.7637 428.241 19.0679 428.241 19.408V41.8779C428.241 42.2179 427.938 42.5222 427.6 42.5222H424.454C424.115 42.5222 423.812 42.2179 423.812 41.8779V19.408Z" fill="#F1F1F2"></path><path d="M437.095 19.408C437.095 19.0679 437.367 18.7637 437.736 18.7637H451.49C451.86 18.7637 452.132 19.0679 452.132 19.408V22.191C452.132 22.531 451.86 22.8353 451.49 22.8353H441.488V28.4013H449.837C450.176 28.4013 450.479 28.7056 450.479 29.0456V31.8644C450.479 32.2358 450.176 32.5087 449.837 32.5087H441.488V38.4461H451.49C451.86 38.4461 452.132 38.7504 452.132 39.0904V41.8734C452.132 42.2135 451.86 42.5177 451.49 42.5177H437.736C437.367 42.5177 437.095 42.2135 437.095 41.8734V19.4035V19.408Z" fill="#F1F1F2"></path><path d="M463.761 22.8353H458.588C458.218 22.8353 457.946 22.531 457.946 22.191V19.408C457.946 19.0679 458.218 18.7637 458.588 18.7637H473.358C473.728 18.7637 474 19.0679 474 19.408V22.191C474 22.531 473.728 22.8353 473.358 22.8353H468.185V41.8779C468.185 42.2179 467.882 42.5222 467.543 42.5222H464.398C464.059 42.5222 463.756 42.2179 463.756 41.8779V22.8353H463.761Z" fill="#F1F1F2"></path></svg>